<svg width="12" height="12" viewBox="0 0 12 12" fill="none" xmlns="http://www.w3.org/2000/svg">
<path fill-rule="evenodd" clip-rule="evenodd" d="M5.22934 0.277943C5.3083 0.105151 5.49001 -0.00478812 5.68846 0.000160382C9.18311 0.0873045 12 2.72967 12 6C12 6.2549 11.7822 6.46154 11.5135 6.46154C11.2448 6.46154 11.027 6.2549 11.027 6C11.027 3.61275 9.23517 1.59586 6.80093 1.06028C8.01131 2.86305 7.84025 5.01839 6.81933 6.70144C5.80352 8.37607 3.92 9.62995 1.6591 9.6475C2.69409 10.5305 4.1579 11.0769 5.67568 11.0769C7.39708 11.0769 8.87481 10.3547 9.8383 9.22708C10.0075 9.02907 10.3139 8.99867 10.5226 9.15919C10.7313 9.31971 10.7633 9.61035 10.5941 9.80836C9.44887 11.1487 7.69515 12 5.67568 12C3.43654 12 1.26032 10.9717 0.0846355 9.33706C-0.0269695 9.18189 -0.0283041 8.97802 0.0812605 8.82154C0.190825 8.66506 0.389425 8.5872 0.583462 8.62465C2.9257 9.07667 4.95017 7.93222 5.97603 6.24103C7.00034 4.55238 6.99229 2.38411 5.32943 0.785754C5.18999 0.651714 5.15037 0.450735 5.22934 0.277943Z" fill="white"/>
</svg>
