<svg width="1237" height="250" viewBox="0 0 1237 250" fill="none" xmlns="http://www.w3.org/2000/svg">
<g clip-path="url(#clip0_679_58)">
<path d="M0.550171 164.25V61.4485V42.8255V18.2409H5.75875L5.83577 10.2701L35.4403 11.0562V18.2409H41.1661V42.8255V61.4485V164.25" stroke="#231815" stroke-width="3" stroke-linecap="round" stroke-linejoin="round"/>
<path d="M369.934 144.293V52.666V33.7014V8.66874H375.238L375.318 0.551025L405.462 1.3481V8.66874H411.294V33.7014V52.666V157.352" stroke="#231815" stroke-width="3" stroke-linecap="round" stroke-linejoin="round"/>
<path d="M1177.97 133.237V52.666V33.7014V8.66874H1183.27L1183.35 0.551025L1213.5 1.3481V8.66874H1219.33V33.7014V52.666V125.865" stroke="#231815" stroke-width="3" stroke-linecap="round" stroke-linejoin="round"/>
<path d="M595.351 152.9V142.067V123.103V98.0701H600.655L600.736 89.9524L630.879 90.7495V98.0701H636.712V123.103V142.067V152.9" stroke="#231815" stroke-width="3" stroke-linecap="round" stroke-linejoin="round"/>
<path d="M16.4657 28.2247H9.35706V35.3433H16.4657V28.2247Z" fill="#EEEE88"/>
<path d="M274.008 111.205H265.41V119.815H274.008V111.205Z" fill="#EEEE88"/>
<path d="M274.008 128.308H265.41V136.918H274.008V128.308Z" fill="#EEEE88"/>
<path d="M291.027 128.308H282.429V136.918H291.027V128.308Z" fill="#EEEE88"/>
<path d="M307.618 128.308H299.02V136.918H307.618V128.308Z" fill="#EEEE88"/>
<path d="M782.651 70.3413H774.053V78.9512H782.651V70.3413Z" fill="#EEEE88"/>
<path d="M799.67 70.3413H791.073V78.9512H799.67V70.3413Z" fill="#EEEE88"/>
<path d="M816.257 70.3413H807.659V78.9512H816.257V70.3413Z" fill="#EEEE88"/>
<path d="M782.864 98.0481H774.266V106.658H782.864V98.0481Z" fill="#EEEE88"/>
<path d="M799.883 98.0481H791.285V106.658H799.883V98.0481Z" fill="#EEEE88"/>
<path d="M816.474 98.0481H807.876V106.658H816.474V98.0481Z" fill="#EEEE88"/>
<path d="M1211.91 19.9086H1203.32V28.5185H1211.91V19.9086Z" fill="#EEEE88"/>
<path d="M1212.13 39.5564H1203.53V48.1663H1212.13V39.5564Z" fill="#EEEE88"/>
<path d="M1212.13 78.8484H1203.53V87.4583H1212.13V78.8484Z" fill="#EEEE88"/>
<path d="M1212.13 59.2006H1203.53V67.8105H1212.13V59.2006Z" fill="#EEEE88"/>
<path d="M291.027 111.205H282.429V119.815H291.027V111.205Z" fill="#EEEE88"/>
<path d="M16.4657 44.0781H9.35706V51.1967H16.4657V44.0781Z" fill="#EEEE88"/>
<path d="M16.4657 59.9279H9.35706V67.0465H16.4657V59.9279Z" fill="#EEEE88"/>
<path d="M74.1709 157.175V110.566H116.863V152.033" stroke="#231815" stroke-width="3" stroke-linecap="round" stroke-linejoin="round"/>
<path d="M136.179 150.556V120.385H230.956V154.042" stroke="#231815" stroke-width="3" stroke-linecap="round" stroke-linejoin="round"/>
<path d="M203.553 130.339H197.244V136.657H203.553V130.339Z" stroke="#231815" stroke-width="3" stroke-linecap="round" stroke-linejoin="round"/>
<path d="M214.711 130.339H208.402V136.657H214.711V130.339Z" stroke="#231815" stroke-width="3" stroke-linecap="round" stroke-linejoin="round"/>
<path d="M383.59 20.724H378.762V25.5579H383.59V20.724Z" stroke="#231815" stroke-width="3" stroke-linecap="round" stroke-linejoin="round"/>
<path d="M383.59 33.2312H378.762V38.0651H383.59V33.2312Z" stroke="#231815" stroke-width="3" stroke-linecap="round" stroke-linejoin="round"/>
<path d="M1127.41 43.8577H1122.58V48.6916H1127.41V43.8577Z" stroke="#231815" stroke-width="3" stroke-linecap="round" stroke-linejoin="round"/>
<path d="M1127.41 56.3685H1122.58V61.2024H1127.41V56.3685Z" stroke="#231815" stroke-width="3" stroke-linecap="round" stroke-linejoin="round"/>
<path d="M1148.12 43.8577H1143.3V48.6916H1148.12V43.8577Z" stroke="#231815" stroke-width="3" stroke-linecap="round" stroke-linejoin="round"/>
<path d="M1148.12 56.3685H1143.3V61.2024H1148.12V56.3685Z" stroke="#231815" stroke-width="3" stroke-linecap="round" stroke-linejoin="round"/>
<path d="M444.82 125.891H439.993V130.725H444.82V125.891Z" stroke="#231815" stroke-width="3" stroke-linecap="round" stroke-linejoin="round"/>
<path d="M458.571 125.891H453.744V130.725H458.571V125.891Z" stroke="#231815" stroke-width="3" stroke-linecap="round" stroke-linejoin="round"/>
<path d="M472.007 125.891H467.18V130.725H472.007V125.891Z" stroke="#231815" stroke-width="3" stroke-linecap="round" stroke-linejoin="round"/>
<path d="M487.845 125.891H483.018V130.725H487.845V125.891Z" stroke="#231815" stroke-width="3" stroke-linecap="round" stroke-linejoin="round"/>
<path d="M501.593 125.891H496.766V130.725H501.593V125.891Z" stroke="#231815" stroke-width="3" stroke-linecap="round" stroke-linejoin="round"/>
<path d="M515.029 125.891H510.202V130.725H515.029V125.891Z" stroke="#231815" stroke-width="3" stroke-linecap="round" stroke-linejoin="round"/>
<path d="M487.999 99.4071H483.172V104.241H487.999V99.4071Z" stroke="#231815" stroke-width="3" stroke-linecap="round" stroke-linejoin="round"/>
<path d="M501.751 99.4071H496.924V104.241H501.751V99.4071Z" stroke="#231815" stroke-width="3" stroke-linecap="round" stroke-linejoin="round"/>
<path d="M515.187 99.4071H510.36V104.241H515.187V99.4071Z" stroke="#231815" stroke-width="3" stroke-linecap="round" stroke-linejoin="round"/>
<path d="M257.546 154.578V104.37H296.874V57.9553H340.494V155.081" stroke="#231815" stroke-width="3" stroke-linecap="round" stroke-linejoin="round"/>
<path d="M430.958 155.082V116.554H470.411V78.9513H537.591V116.554L581.31 117.016V155.082" stroke="#231815" stroke-width="3" stroke-linecap="round" stroke-linejoin="round"/>
<path d="M671.727 152.9V38.0651H715.328V152.9" stroke="#231815" stroke-width="3" stroke-linecap="round" stroke-linejoin="round"/>
<path d="M756.366 152.9V51.1968H833.314V87.26H915.389V152.9" stroke="#231815" stroke-width="3" stroke-linecap="round" stroke-linejoin="round"/>
<path d="M947.451 152.9V106.518H1026.96V152.9" stroke="#231815" stroke-width="3" stroke-linecap="round" stroke-linejoin="round"/>
<path d="M1053.89 152.9V68.4019H1111.6V33.2312H1160.34V152.9" stroke="#231815" stroke-width="3" stroke-linecap="round" stroke-linejoin="round"/>
<path d="M35.1835 205.731L32.9277 203.63C38.8552 203.09 44.1408 200.724 35.1835 192.349L26.5013 184.269C23.4202 181.4 18.3767 181.4 15.2992 184.269L6.61704 192.349C-2.55299 200.401 2.90868 202.991 8.89487 203.608L6.61704 205.731C-2.05047 213.338 2.35114 216.071 7.91551 216.868L6.61704 218.076C-2.40994 226.003 2.73995 228.637 9.00124 230.885C11.5652 231.807 14.2685 232.266 16.9938 232.266H25.6907C28.6801 232.266 31.6439 231.708 34.4096 230.569C39.4898 228.479 43.5612 225.904 35.1872 218.076L33.9217 216.901C39.4054 216.185 43.6383 213.636 35.1872 205.731H35.1835Z" stroke="#231815" stroke-width="3.2" stroke-linecap="round" stroke-linejoin="round"/>
<path d="M20.8489 248.365V207.116L13.7219 197.055" stroke="#231815" stroke-width="3.2" stroke-linecap="round" stroke-linejoin="round"/>
<path d="M27.5357 200.328L20.8489 207.116" stroke="#231815" stroke-width="3.2" stroke-linecap="round" stroke-linejoin="round"/>
<path d="M11.965 212.651L20.8489 217.176" stroke="#231815" stroke-width="3.2" stroke-linecap="round" stroke-linejoin="round"/>
<path d="M20.8489 223.718L27.5357 219.946" stroke="#231815" stroke-width="3.2" stroke-linecap="round" stroke-linejoin="round"/>
<path d="M239.147 221.316H232.838V227.634H239.147V221.316Z" stroke="#231815" stroke-width="3" stroke-linecap="round" stroke-linejoin="round"/>
<path d="M248.504 221.316H242.195V227.634H248.504V221.316Z" stroke="#231815" stroke-width="3" stroke-linecap="round" stroke-linejoin="round"/>
<path d="M248.504 230.686H242.195V237.004H248.504V230.686Z" stroke="#231815" stroke-width="3" stroke-linecap="round" stroke-linejoin="round"/>
<path d="M239.147 230.686H232.838V237.004H239.147V230.686Z" stroke="#231815" stroke-width="3" stroke-linecap="round" stroke-linejoin="round"/>
<path d="M216.163 223.256L219.637 245.599C220.491 247.583 225.509 249.052 231.426 249.052H250.892C256.819 249.052 261.845 247.576 262.685 245.588L266.242 222.874C266.741 221.691 265.67 220.493 263.315 219.604L241.058 209.272L219.083 219.975C216.721 220.868 215.65 222.069 216.159 223.256H216.163Z" stroke="#231815" stroke-width="2.69" stroke-linecap="round" stroke-linejoin="round"/>
<path d="M265.909 221.206L267.49 211.402C267.633 210.521 267.215 209.643 266.441 209.198L245.291 197.007C242.797 195.883 238.898 195.883 236.403 197.007L214.986 209.073C214.109 209.566 213.658 210.576 213.874 211.56L216.031 221.353" stroke="#231815" stroke-width="2.51" stroke-linecap="round" stroke-linejoin="round"/>
<path d="M774.42 211.619H768.111V217.937H774.42V211.619Z" stroke="#231815" stroke-width="3" stroke-linecap="round" stroke-linejoin="round"/>
<path d="M783.777 211.619H777.468V217.937H783.777V211.619Z" stroke="#231815" stroke-width="3" stroke-linecap="round" stroke-linejoin="round"/>
<path d="M783.777 220.989H777.468V227.307H783.777V220.989Z" stroke="#231815" stroke-width="3" stroke-linecap="round" stroke-linejoin="round"/>
<path d="M774.42 220.989H768.111V227.307H774.42V220.989Z" stroke="#231815" stroke-width="3" stroke-linecap="round" stroke-linejoin="round"/>
<path d="M751.436 213.948L754.91 243.921C755.764 246.58 760.782 248.553 766.699 248.553H786.165C792.092 248.553 797.117 246.573 797.957 243.906L801.515 213.434C802.014 211.847 800.943 210.242 798.588 209.048L776.331 195.185L754.356 209.544C751.994 210.741 750.923 212.354 751.432 213.944L751.436 213.948Z" stroke="#231815" stroke-width="3.12" stroke-linecap="round" stroke-linejoin="round"/>
<path d="M801.182 211.2L802.763 198.047C802.906 196.864 802.487 195.685 801.713 195.09L780.564 178.737C778.069 177.227 774.17 177.227 771.676 178.737L750.259 194.924C749.382 195.586 748.931 196.941 749.147 198.26L751.304 211.399" stroke="#231815" stroke-width="2.91" stroke-linecap="round" stroke-linejoin="round"/>
<path d="M605.534 222.279H600.707V227.112H605.534V222.279Z" stroke="#231815" stroke-width="3" stroke-linecap="round" stroke-linejoin="round"/>
<path d="M605.534 228.549H600.707V233.383H605.534V228.549Z" stroke="#231815" stroke-width="3" stroke-linecap="round" stroke-linejoin="round"/>
<path d="M612.044 228.549H607.217V233.383H612.044V228.549Z" stroke="#231815" stroke-width="3" stroke-linecap="round" stroke-linejoin="round"/>
<path d="M612.044 222.279H607.217V227.112H612.044V222.279Z" stroke="#231815" stroke-width="3" stroke-linecap="round" stroke-linejoin="round"/>
<path d="M644.836 222.999H640.009V227.832H644.836V222.999Z" stroke="#231815" stroke-width="3" stroke-linecap="round" stroke-linejoin="round"/>
<path d="M644.836 229.265H640.009V234.099H644.836V229.265Z" stroke="#231815" stroke-width="3" stroke-linecap="round" stroke-linejoin="round"/>
<path d="M651.347 229.265H646.52V234.099H651.347V229.265Z" stroke="#231815" stroke-width="3" stroke-linecap="round" stroke-linejoin="round"/>
<path d="M651.347 222.999H646.52V227.832H651.347V222.999Z" stroke="#231815" stroke-width="3" stroke-linecap="round" stroke-linejoin="round"/>
<path d="M573.142 221.673L580.503 244.696C582.315 246.738 592.949 248.255 605.482 248.255H646.726C659.285 248.255 669.933 246.735 671.716 244.685L679.253 221.28C680.313 220.06 678.043 218.83 673.051 217.911L625.891 207.263L579.333 218.293C574.326 219.212 572.059 220.449 573.142 221.673Z" stroke="#231815" stroke-width="3.98" stroke-linecap="round" stroke-linejoin="round"/>
<path d="M572.877 219.711L565.622 213.489C565.164 212.475 563.238 210.146 565.582 208.449L583.419 203.564V194.994C583.419 193.477 584.648 192.243 586.167 192.243H592.949C594.401 192.243 595.579 193.422 595.579 194.877V200.229L616.035 194.623C618.676 194.043 622.062 193.753 625.447 193.753C628.833 193.753 632.218 194.043 634.863 194.623L682.408 207.95C688.383 208.952 686.538 210.668 686.237 211.579L679.25 221.279" stroke="#231815" stroke-width="3.71" stroke-linecap="round" stroke-linejoin="round"/>
<path d="M468.475 220.541H462.166V226.859H468.475V220.541Z" fill="#EEEE88"/>
<path d="M475.756 220.541H469.447V226.859H475.756V220.541Z" fill="#EEEE88"/>
<path d="M475.756 227.829H469.447V234.147H475.756V227.829Z" fill="#EEEE88"/>
<path d="M468.475 227.829H462.166V234.147H468.475V227.829Z" fill="#EEEE88"/>
<path d="M453.315 209.83L456.612 242.922C457.423 245.86 462.188 248.035 467.804 248.035H486.283C491.91 248.035 496.682 245.849 497.481 242.903L500.86 209.261C501.333 207.509 500.317 205.738 498.083 204.42L476.952 189.117L456.088 204.971C453.843 206.293 452.827 208.071 453.315 209.826V209.83Z" stroke="#231815" stroke-width="3.19" stroke-linecap="round" stroke-linejoin="round"/>
<path d="M453.198 207.009L451.147 192.504C450.942 191.049 451.371 189.554 452.2 188.823L472.535 170.953C474.905 169.286 478.606 169.286 480.972 170.953L485.891 175.376V163.453H492.137V180.992L501.054 189.011C501.788 189.672 502.184 190.972 502.048 192.276L500.544 206.8" stroke="#231815" stroke-width="2.98" stroke-linecap="round" stroke-linejoin="round"/>
<path d="M141.262 201.202H134.154V208.321H141.262V201.202Z" fill="#EEEE88"/>
<path d="M120.314 219.314H113.206V226.433H120.314V219.314Z" fill="#EEEE88"/>
<path d="M134.356 189.466H127.247V196.585H134.356V189.466Z" fill="#EEEE88"/>
<path d="M132.566 200.563H126.257V206.881H132.566V200.563Z" stroke="#231815" stroke-width="3" stroke-linecap="round" stroke-linejoin="round"/>
<path d="M122.427 187.784H116.118V194.102H122.427V187.784Z" stroke="#231815" stroke-width="3" stroke-linecap="round" stroke-linejoin="round"/>
<path d="M134.113 213.658H127.804V219.975H134.113V213.658Z" stroke="#231815" stroke-width="3" stroke-linecap="round" stroke-linejoin="round"/>
<path d="M105.312 196.831L112.131 242.389C112.733 246.419 116.276 249.409 120.446 249.409H134.179C138.361 249.409 141.908 246.408 142.498 242.367L149.182 196.82C149.534 194.418 148.778 191.982 147.116 190.175L127.24 168.551L107.374 190.164C105.708 191.979 104.953 194.418 105.312 196.831Z" stroke="#231815" stroke-width="3.22" stroke-linecap="round" stroke-linejoin="round"/>
<path d="M149.185 193.025L151.639 175.255L130.886 150.005C128.685 147.926 125.252 147.926 123.051 150.005L102.642 175.387L102.312 179.512L104.751 193.029" stroke="#231815" stroke-width="3.2" stroke-linecap="round" stroke-linejoin="round"/>
<path d="M135.001 224.758H131.08C129.585 224.758 128.373 225.972 128.373 227.469V245.937C128.373 247.435 129.585 248.648 131.08 248.648H135.001C136.496 248.648 137.708 247.435 137.708 245.937V227.469C137.708 225.972 136.496 224.758 135.001 224.758Z" stroke="#231815" stroke-width="3.22" stroke-linecap="round" stroke-linejoin="round"/>
<path d="M364.996 220.273C364.996 220.273 405.073 214.69 381.356 181.712C379.955 179.765 379.5 177.3 380.061 174.968C381.415 169.348 381.473 157.891 364.131 148.69C361.053 147.059 357.356 147.056 354.279 148.69C337.607 157.531 336.841 168.812 337.916 174.854C338.444 177.822 337.769 180.889 336.045 183.361C313.652 215.509 357.444 220.31 357.444 220.31L359.091 247.609" stroke="#231815" stroke-width="3" stroke-linecap="round" stroke-linejoin="round"/>
<path d="M346.484 169.017C346.484 169.017 350.618 174.134 354.994 169.017" stroke="#231815" stroke-width="3" stroke-linecap="round" stroke-linejoin="round"/>
<path d="M354.994 169.017C354.994 169.017 359.128 174.134 363.504 169.017" stroke="#231815" stroke-width="3" stroke-linecap="round" stroke-linejoin="round"/>
<path d="M363.504 169.017C363.504 169.017 367.638 174.134 372.013 169.017" stroke="#231815" stroke-width="3" stroke-linecap="round" stroke-linejoin="round"/>
<path d="M346.326 200.846C346.326 200.846 350.46 205.962 354.836 200.846" stroke="#231815" stroke-width="3" stroke-linecap="round" stroke-linejoin="round"/>
<path d="M354.836 200.846C354.836 200.846 358.97 205.962 363.346 200.846" stroke="#231815" stroke-width="3" stroke-linecap="round" stroke-linejoin="round"/>
<path d="M363.346 200.846C363.346 200.846 367.48 205.962 371.855 200.846" stroke="#231815" stroke-width="3" stroke-linecap="round" stroke-linejoin="round"/>
<path d="M346.326 184.93C346.326 184.93 350.46 190.046 354.836 184.93" stroke="#231815" stroke-width="3" stroke-linecap="round" stroke-linejoin="round"/>
<path d="M354.836 184.93C354.836 184.93 358.97 190.046 363.346 184.93" stroke="#231815" stroke-width="3" stroke-linecap="round" stroke-linejoin="round"/>
<path d="M363.346 184.93C363.346 184.93 367.48 190.046 371.855 184.93" stroke="#231815" stroke-width="3" stroke-linecap="round" stroke-linejoin="round"/>
<path d="M900.342 220.273C900.342 220.273 940.419 214.69 916.702 181.712C915.301 179.765 914.846 177.3 915.407 174.968C916.76 169.348 916.819 157.891 899.477 148.69C896.399 147.059 892.702 147.056 889.625 148.69C872.953 157.531 872.187 168.812 873.262 174.854C873.79 177.822 873.115 180.889 871.391 183.361C848.998 215.509 892.79 220.31 892.79 220.31L894.437 247.609" stroke="#231815" stroke-width="3" stroke-linecap="round" stroke-linejoin="round"/>
<path d="M882.868 169.017C882.868 169.017 887.002 174.134 891.378 169.017" stroke="#231815" stroke-width="3" stroke-linecap="round" stroke-linejoin="round"/>
<path d="M891.378 169.017C891.378 169.017 895.512 174.134 899.888 169.017" stroke="#231815" stroke-width="3" stroke-linecap="round" stroke-linejoin="round"/>
<path d="M899.891 169.017C899.891 169.017 904.025 174.134 908.401 169.017" stroke="#231815" stroke-width="3" stroke-linecap="round" stroke-linejoin="round"/>
<path d="M882.71 200.846C882.71 200.846 886.844 205.962 891.22 200.846" stroke="#231815" stroke-width="3" stroke-linecap="round" stroke-linejoin="round"/>
<path d="M891.22 200.846C891.22 200.846 895.354 205.962 899.73 200.846" stroke="#231815" stroke-width="3" stroke-linecap="round" stroke-linejoin="round"/>
<path d="M899.734 200.846C899.734 200.846 903.868 205.962 908.244 200.846" stroke="#231815" stroke-width="3" stroke-linecap="round" stroke-linejoin="round"/>
<path d="M882.71 184.93C882.71 184.93 886.844 190.046 891.22 184.93" stroke="#231815" stroke-width="3" stroke-linecap="round" stroke-linejoin="round"/>
<path d="M891.22 184.93C891.22 184.93 895.354 190.046 899.73 184.93" stroke="#231815" stroke-width="3" stroke-linecap="round" stroke-linejoin="round"/>
<path d="M899.734 184.93C899.734 184.93 903.868 190.046 908.244 184.93" stroke="#231815" stroke-width="3" stroke-linecap="round" stroke-linejoin="round"/>
<path d="M995.275 221.448L1002.64 244.472C1004.45 246.514 1015.08 248.031 1027.62 248.031H1068.86C1081.42 248.031 1092.07 246.511 1093.85 244.461L1101.39 221.055C1102.45 219.836 1100.18 218.605 1095.18 217.687L1048.02 207.039L1001.47 218.069C996.459 218.987 994.193 220.225 995.275 221.448Z" stroke="#231815" stroke-width="3.98" stroke-linecap="round" stroke-linejoin="round"/>
<path d="M1100.44 219.483L1107.7 213.261C1108.16 212.247 1110.08 209.918 1107.74 208.221L1089.9 203.336V194.766C1089.9 193.249 1088.67 192.015 1087.15 192.015H1080.37C1078.92 192.015 1077.74 193.194 1077.74 194.649V200.001L1057.29 194.395C1054.64 193.815 1051.26 193.525 1047.87 193.525C1044.49 193.525 1041.1 193.815 1038.46 194.395L990.913 207.722C984.938 208.725 986.783 210.44 987.084 211.351L994.071 221.052" stroke="#231815" stroke-width="3.71" stroke-linecap="round" stroke-linejoin="round"/>
<path d="M1047.24 222.738H1040.93V229.056H1047.24V222.738Z" fill="#EEEE88"/>
<path d="M1054.52 222.738H1048.21V229.056H1054.52V222.738Z" fill="#EEEE88"/>
<path d="M1054.52 230.025H1048.21V236.343H1054.52V230.025Z" fill="#EEEE88"/>
<path d="M1047.24 230.025H1040.93V236.343H1047.24V230.025Z" fill="#EEEE88"/>
<path d="M1193.26 213.276C1193.26 213.276 1151.82 202.616 1183 144.745" stroke="#231815" stroke-width="3.71" stroke-linecap="round" stroke-linejoin="round"/>
<path d="M1214.17 137.891C1214.17 137.891 1260.37 177.598 1219.33 211.391" stroke="#231815" stroke-width="3.71" stroke-linecap="round" stroke-linejoin="round"/>
<path d="M1201.24 248.365V199.567L1193.26 195.762" stroke="#231815" stroke-width="3.71" stroke-linecap="round" stroke-linejoin="round"/>
<path d="M1190.98 164.161L1201.24 184.338V199.567" stroke="#231815" stroke-width="3.71" stroke-linecap="round" stroke-linejoin="round"/>
<path d="M1214.17 155.783L1201.24 184.338" stroke="#231815" stroke-width="3.71" stroke-linecap="round" stroke-linejoin="round"/>
<path d="M1201.24 195.762L1219.33 189.668" stroke="#231815" stroke-width="3.71" stroke-linecap="round" stroke-linejoin="round"/>
</g>
<defs>
<clipPath id="clip0_679_58">
<rect width="1237" height="250" fill="white"/>
</clipPath>
</defs>
</svg>
